<svg width="436" height="193" viewBox="0 0 436 193" fill="none" xmlns="http://www.w3.org/2000/svg">
<g clip-path="url(#clip0_353_20)">
<path d="M226.33 53.8701C219.314 53.6764 212.33 54.8911 205.791 57.4424C199.252 59.9936 193.291 63.8297 188.259 68.7239C183.228 73.6182 179.229 79.4712 176.498 85.9373C173.768 92.4033 172.361 99.3511 172.361 106.37C172.361 113.389 173.768 120.337 176.498 126.803C179.229 133.269 183.228 139.122 188.259 144.016C193.291 148.91 199.252 152.747 205.791 155.298C212.33 157.849 219.314 159.064 226.33 158.87C229.748 158.873 233.158 158.538 236.51 157.87L278.8 150.31C278.8 150.31 278.85 107.02 278.85 106.31C278.813 92.3997 273.265 79.0708 263.422 69.2421C253.578 59.4134 240.24 53.8859 226.33 53.8701ZM252.81 129.87L231.46 133.68C226.107 134.737 220.558 134.115 215.572 131.898C210.587 129.681 206.407 125.979 203.606 121.296C200.805 116.614 199.518 111.18 199.923 105.739C200.327 100.298 202.403 95.1141 205.865 90.8972C209.328 86.6804 214.009 83.6362 219.268 82.1809C224.526 80.7257 230.106 80.9305 235.244 82.7673C240.382 84.6041 244.827 87.9833 247.971 92.4426C251.116 96.902 252.806 102.224 252.81 107.68V129.87Z" fill="white"/>
<path d="M289.23 51.1V94.72V104.06V148.52L316.86 143.66V104.06V94.72V46.22L289.23 51.1Z" fill="white"/>
<path d="M166.17 63.6101C152.493 64.6477 139.712 70.8078 130.379 80.8595C121.047 90.9112 115.851 104.114 115.83 117.83V179.1L143.6 174.22V117.83C143.681 111.497 145.986 105.393 150.112 100.587C154.238 95.7812 159.922 92.5788 166.17 91.5401V63.6101Z" fill="white"/>
<path d="M54.14 83.8701C51.5633 83.8742 48.9902 84.0613 46.44 84.4301H46.24C45.09 84.6001 43.95 84.8001 42.82 85.0401L27.64 87.8201V48.3401L3.69481e-06 53.2301V138C-0.00395222 148.711 3.16878 159.183 9.11689 168.091C15.065 176.998 23.5213 183.942 33.4161 188.043C43.311 192.145 54.1999 193.219 64.7056 191.131C75.2112 189.043 84.8617 183.887 92.4363 176.313C100.011 168.74 105.169 159.091 107.259 148.585C109.349 138.08 108.277 127.191 104.177 117.295C100.078 107.4 93.1356 98.9423 84.2289 92.9925C75.3223 87.0428 64.8511 83.8681 54.14 83.8701ZM54.14 164.58C47.0966 164.569 40.3451 161.765 35.3674 156.781C30.3898 151.798 27.5926 145.044 27.59 138C27.59 137.647 27.59 137.297 27.59 136.95V115.76L49.05 112C52.6907 111.284 56.4411 111.338 60.0595 112.16C63.6779 112.982 67.084 114.552 70.0582 116.771C73.0324 118.989 75.5088 121.807 77.3277 125.041C79.1466 128.275 80.2677 131.854 80.6187 135.548C80.9697 139.242 80.5428 142.968 79.3655 146.487C78.1883 150.006 76.2868 153.239 73.7837 155.978C71.2806 158.717 68.2313 160.901 64.8324 162.39C61.4335 163.878 57.7605 164.638 54.05 164.62L54.14 164.58Z" fill="white"/>
<path d="M381.34 26.25C351.51 26.25 327.24 50.1 327.24 81.87V176L355.32 170.91V139.91C355.32 139.91 371.22 137.15 381.32 135.35C417.24 128.97 436.25 107.95 435.44 78.12C434.57 45.56 406.6 26.25 381.34 26.25ZM407.89 80.14C407.07 98 395 104.64 380.62 107.3C366.37 109.93 355.32 111.63 355.32 111.63V79.78C355.32 65.78 366.68 54.44 380.62 53.89C395.42 53.31 408.59 64.69 407.89 80.14Z" fill="white"/>
<path d="M318.931 23.7742C322.564 15.0031 318.399 4.94748 309.628 1.31437C300.857 -2.31874 290.801 1.84643 287.168 10.6175C283.535 19.3886 287.7 29.4442 296.472 33.0774C305.243 36.7105 315.298 32.5453 318.931 23.7742Z" fill="white"/>
</g>
<defs>
<clipPath id="clip0_353_20">
<rect width="435.48" height="192.16" fill="white"/>
</clipPath>
</defs>
</svg>
